<svg width="122" height="29" viewBox="0 0 122 29" fill="none" xmlns="http://www.w3.org/2000/svg">
<path d="M107.179 27.857C106.495 27.857 105.937 27.6923 105.507 27.363C105.076 27.0083 104.785 26.565 104.633 26.033C104.481 25.501 104.481 24.931 104.633 24.323C104.81 23.6897 105.139 23.107 105.621 22.575L114.437 12.619V14.139H106.913C106.102 14.139 105.481 13.9237 105.051 13.493C104.62 13.0623 104.405 12.4417 104.405 11.631C104.405 10.8203 104.62 10.2123 105.051 9.80701C105.481 9.37634 106.102 9.16101 106.913 9.16101H117.667C118.427 9.16101 119.047 9.33834 119.529 9.69301C120.01 10.0223 120.327 10.453 120.479 10.985C120.656 11.517 120.669 12.087 120.517 12.695C120.365 13.303 120.048 13.873 119.567 14.405L110.523 24.627V22.879H118.617C120.314 22.879 121.163 23.7023 121.163 25.349C121.163 26.1597 120.947 26.7803 120.517 27.211C120.086 27.6417 119.453 27.857 118.617 27.857H107.179Z" fill="#2076E2"/>
<path d="M99.3416 28.275C96.9096 28.275 95.111 27.629 93.9456 26.337C92.8056 25.0196 92.2356 23.0436 92.2356 20.409V4.14498C92.2356 3.03031 92.527 2.18164 93.1096 1.59898C93.6923 1.01631 94.5156 0.724976 95.5796 0.724976C96.669 0.724976 97.505 1.01631 98.0876 1.59898C98.6956 2.18164 98.9996 3.03031 98.9996 4.14498V20.181C98.9996 21.1183 99.177 21.8023 99.5316 22.233C99.9116 22.6636 100.393 22.879 100.976 22.879C101.153 22.879 101.33 22.8663 101.508 22.841C101.71 22.7903 101.926 22.7523 102.154 22.727C102.584 22.727 102.901 22.8916 103.104 23.221C103.332 23.5503 103.446 24.2216 103.446 25.235C103.446 26.1216 103.268 26.793 102.914 27.249C102.559 27.6796 102.014 27.9583 101.28 28.085C101.077 28.1103 100.786 28.1483 100.406 28.199C100.026 28.2496 99.671 28.275 99.3416 28.275Z" fill="#2076E2"/>
<path d="M81.3032 28.275C79.8592 28.275 78.5672 27.933 77.4272 27.249C76.3125 26.5396 75.5778 25.615 75.2232 24.475L75.6412 22.917V24.779C75.6412 25.8936 75.3498 26.7423 74.7672 27.325C74.2098 27.9076 73.3992 28.199 72.3352 28.199C71.2458 28.199 70.4098 27.9076 69.8272 27.325C69.2698 26.7423 68.9912 25.8936 68.9912 24.779V4.14498C68.9912 3.03031 69.2825 2.18164 69.8652 1.59898C70.4478 1.01631 71.2712 0.724976 72.3352 0.724976C73.4245 0.724976 74.2605 1.01631 74.8432 1.59898C75.4512 2.18164 75.7552 3.03031 75.7552 4.14498V12.277H75.2992C75.6792 11.2383 76.4265 10.3896 77.5412 9.73098C78.6558 9.07231 79.9098 8.74298 81.3032 8.74298C82.9245 8.74298 84.3432 9.13564 85.5592 9.92098C86.8005 10.7063 87.7632 11.821 88.4472 13.265C89.1312 14.709 89.4732 16.457 89.4732 18.509C89.4732 20.5103 89.1312 22.2456 88.4472 23.715C87.7632 25.1843 86.8005 26.3116 85.5592 27.097C84.3432 27.8823 82.9245 28.275 81.3032 28.275ZM79.1752 23.297C79.8592 23.297 80.4545 23.1323 80.9612 22.803C81.4932 22.4483 81.9112 21.929 82.2152 21.245C82.5192 20.5356 82.6712 19.6236 82.6712 18.509C82.6712 16.8116 82.3418 15.5956 81.6832 14.861C81.0245 14.101 80.1885 13.721 79.1752 13.721C78.4912 13.721 77.8832 13.8856 77.3512 14.215C76.8192 14.5443 76.4012 15.0636 76.0972 15.773C75.7932 16.457 75.6412 17.369 75.6412 18.509C75.6412 20.181 75.9705 21.397 76.6292 22.157C77.2878 22.917 78.1365 23.297 79.1752 23.297Z" fill="#2076E2"/>
<path d="M58.0587 28.275C56.6147 28.275 55.3227 27.933 54.1827 27.249C53.0681 26.5396 52.3334 25.615 51.9787 24.475L52.3967 22.917V24.779C52.3967 25.8936 52.1054 26.7423 51.5227 27.325C50.9654 27.9076 50.1547 28.199 49.0907 28.199C48.0014 28.199 47.1654 27.9076 46.5827 27.325C46.0254 26.7423 45.7467 25.8936 45.7467 24.779V4.14498C45.7467 3.03031 46.038 2.18164 46.6207 1.59898C47.2034 1.01631 48.0267 0.724976 49.0907 0.724976C50.1801 0.724976 51.016 1.01631 51.5987 1.59898C52.2067 2.18164 52.5107 3.03031 52.5107 4.14498V12.277H52.0547C52.4347 11.2383 53.1821 10.3896 54.2967 9.73098C55.4114 9.07231 56.6654 8.74298 58.0587 8.74298C59.6801 8.74298 61.0987 9.13564 62.3147 9.92098C63.5561 10.7063 64.5187 11.821 65.2027 13.265C65.8867 14.709 66.2287 16.457 66.2287 18.509C66.2287 20.5103 65.8867 22.2456 65.2027 23.715C64.5187 25.1843 63.5561 26.3116 62.3147 27.097C61.0987 27.8823 59.6801 28.275 58.0587 28.275ZM55.9307 23.297C56.6147 23.297 57.21 23.1323 57.7167 22.803C58.2487 22.4483 58.6667 21.929 58.9707 21.245C59.2747 20.5356 59.4267 19.6236 59.4267 18.509C59.4267 16.8116 59.0974 15.5956 58.4387 14.861C57.7801 14.101 56.9441 13.721 55.9307 13.721C55.2467 13.721 54.6387 13.8856 54.1067 14.215C53.5747 14.5443 53.1567 15.0636 52.8527 15.773C52.5487 16.457 52.3967 17.369 52.3967 18.509C52.3967 20.181 52.7261 21.397 53.3847 22.157C54.0434 22.917 54.8921 23.297 55.9307 23.297Z" fill="#2076E2"/>
<path d="M30.2365 28.275C28.6151 28.275 27.2851 27.9836 26.2464 27.401C25.2078 26.793 24.4224 25.8936 23.8904 24.703C23.3838 23.5123 23.1304 22.005 23.1304 20.181V12.201C23.1304 11.0863 23.4218 10.2503 24.0044 9.69297C24.5871 9.1103 25.4231 8.81897 26.5124 8.81897C27.6018 8.81897 28.4378 9.1103 29.0204 9.69297C29.6031 10.2503 29.8944 11.0863 29.8944 12.201V20.371C29.8944 21.283 30.0844 21.967 30.4644 22.423C30.8444 22.879 31.4398 23.107 32.2504 23.107C33.1624 23.107 33.9098 22.7776 34.4924 22.119C35.0751 21.4603 35.3664 20.5863 35.3664 19.497V12.201C35.3664 11.0863 35.6578 10.2503 36.2404 9.69297C36.8231 9.1103 37.6591 8.81897 38.7484 8.81897C39.8378 8.81897 40.6738 9.1103 41.2565 9.69297C41.8391 10.2503 42.1304 11.0863 42.1304 12.201V24.779C42.1304 27.059 41.0411 28.199 38.8624 28.199C37.7984 28.199 36.9751 27.9076 36.3924 27.325C35.8098 26.7423 35.5184 25.8936 35.5184 24.779V22.575L36.1264 24.437C35.5691 25.6783 34.7838 26.6283 33.7705 27.287C32.7825 27.9456 31.6045 28.275 30.2365 28.275Z" fill="#2076E2"/>
<path d="M12.312 28.275C10.868 28.275 9.576 27.933 8.436 27.249C7.32133 26.5396 6.58667 25.615 6.232 24.475L6.65 22.917V24.779C6.65 25.8936 6.35867 26.7423 5.776 27.325C5.21867 27.9076 4.408 28.199 3.344 28.199C2.25467 28.199 1.41867 27.9076 0.836 27.325C0.278667 26.7423 0 25.8936 0 24.779V4.14498C0 3.03031 0.291333 2.18164 0.874 1.59898C1.45667 1.01631 2.28 0.724976 3.344 0.724976C4.43333 0.724976 5.26933 1.01631 5.852 1.59898C6.46 2.18164 6.764 3.03031 6.764 4.14498V12.277H6.308C6.688 11.2383 7.43533 10.3896 8.55 9.73098C9.66467 9.07231 10.9187 8.74298 12.312 8.74298C13.9333 8.74298 15.352 9.13564 16.568 9.92098C17.8093 10.7063 18.772 11.821 19.456 13.265C20.14 14.709 20.482 16.457 20.482 18.509C20.482 20.5103 20.14 22.2456 19.456 23.715C18.772 25.1843 17.8093 26.3116 16.568 27.097C15.352 27.8823 13.9333 28.275 12.312 28.275ZM10.184 23.297C10.868 23.297 11.4633 23.1323 11.97 22.803C12.502 22.4483 12.92 21.929 13.224 21.245C13.528 20.5356 13.68 19.6236 13.68 18.509C13.68 16.8116 13.3507 15.5956 12.692 14.861C12.0333 14.101 11.1973 13.721 10.184 13.721C9.5 13.721 8.892 13.8856 8.36 14.215C7.828 14.5443 7.41 15.0636 7.106 15.773C6.802 16.457 6.65 17.369 6.65 18.509C6.65 20.181 6.97933 21.397 7.638 22.157C8.29667 22.917 9.14533 23.297 10.184 23.297Z" fill="#2076E2"/>
</svg>
